# xmcd CD database file
#
# Track frame offsets:
#	150
#	12730
#	26423
#	40765
#	53308
#	68081
#	83131
#	95217
#	110816
#	125426
#	139171
#
# Disc length: 2046 seconds
#
# Revision: 0
# Processed by: cddbd v1.5.2PL0 Copyright (c) Steve Scherf et al.
# Submitted via: CDex 1.51
#
DISCID=9207fc0b
DTITLE=Lenny Cooper - Dirtified
DYEAR=2016
DGENRE=Country
TTITLE0=Dirtified
TTITLE1=Sing Along Song (feat. Noah Gordon)
TTITLE2=Sound of the Woods (feat. Charlie Farley)
TTITLE3=Dirty Girl (feat. Sarah Ross and Young Gunner)
TTITLE4=Buckwild
TTITLE5=Keep it So Country (feat. Young Gunner)
TTITLE6=Bonfire (feat. Dustin Rhodes)
TTITLE7=Chillin' in the Backwoods
TTITLE8=Day in the Life
TTITLE9=My Roots
TTITLE10=We Don't Give a... (feat. Demun Jones)
EXTD=YEAR: 2016
EXTT0=
EXTT1=
EXTT2=
EXTT3=
EXTT4=
EXTT5=
EXTT6=
EXTT7=
EXTT8=
EXTT9=
EXTT10=
PLAYORDER=
